<svg id="レイヤー_1" data-name="レイヤー 1" xmlns="http://www.w3.org/2000/svg" viewBox="0 0 65.75 72.16"><defs><style>.cls-1{fill:none;stroke:#333;stroke-miterlimit:10;stroke-width:0.5px;}.cls-2{fill:#f06060;}.cls-3{font-size:14.94px;fill:#fff;font-family:KozGoPr6N-Bold-90ms-RKSJ-H, Kozuka Gothic Pr6N;letter-spacing:0.03em;}</style></defs><title>CASE2</title><path class="cls-1" d="M82.5,21.5c-.79-.62-9.46-7.2-19-4-9.94,3.34-14.61,15.19-13,23,.91,4.43,4,8.21,3,9-.82.66-3-2-7-3a16.07,16.07,0,0,0-10,1c-7.93,3.26-11.47,12.73-11,20a12.46,12.46,0,0,0,1,5c1.31,2.77,3.43,4,3,5-.33.8-1.76.58-3,1-1.89.64-3.95,2.94-5,10" transform="translate(-21.25 -16.37)"/><rect class="cls-2" x="9.75" y="5.63" width="56" height="19"/><polygon class="cls-2" points="14.87 5.09 20.38 0 19.84 7.48 27.25 8.61 21.06 12.85 24.8 19.35 17.63 17.15 14.87 24.13 12.12 17.15 4.95 19.35 8.69 12.85 2.5 8.61 9.91 7.48 9.37 0 14.87 5.09"/><text class="cls-3" transform="translate(16.53 20.83)">CASE2</text></svg>