<svg id="レイヤー_1" data-name="レイヤー 1" xmlns="http://www.w3.org/2000/svg" viewBox="0 0 110 32"><defs><style>.cls-1{fill:#f06060;stroke:#f06060;}.cls-1,.cls-5,.cls-6,.cls-7,.cls-8,.cls-9{stroke-miterlimit:10;}.cls-2{font-size:9px;}.cls-2,.cls-3,.cls-4,.cls-9{fill:#fff;}.cls-2,.cls-4{font-family:Kazesawa-Bold, Kazesawa;font-weight:700;}.cls-3{font-size:5px;font-family:Kazesawa-Semibold, Kazesawa;font-weight:600;}.cls-4{font-size:11px;}.cls-5,.cls-6,.cls-7,.cls-8{fill:none;}.cls-5,.cls-6,.cls-7{stroke:gold;stroke-width:0.25px;}.cls-6{stroke-dasharray:2 1;}.cls-7{stroke-dasharray:2 1;}.cls-8,.cls-9{stroke:#fff;}</style></defs><title>フォームボタン</title><rect class="cls-1" x="0.5" y="0.5" width="109" height="31"/><text class="cls-2" transform="translate(26.25 24.96)">1000</text><text class="cls-3" transform="translate(48.36 25.12)">円で体験入会！</text><text class="cls-3" transform="translate(11.48 25)">今なら</text><text class="cls-4" transform="translate(4.21 14.33)">申し込みはコチラ</text><polyline class="cls-5" points="109 30 109 31 108 31"/><line class="cls-6" x1="107" y1="31" x2="2.5" y2="31"/><polyline class="cls-5" points="2 31 1 31 1 30"/><line class="cls-7" x1="1" y1="29" x2="1" y2="2.52"/><polyline class="cls-5" points="1 2.02 1 1.02 2 1.02"/><line class="cls-6" x1="3" y1="1.03" x2="107.5" y2="1.03"/><polyline class="cls-5" points="108 1.02 109 1.02 109 2.02"/><line class="cls-7" x1="109" y1="3.02" x2="109" y2="29.5"/><circle class="cls-8" cx="100" cy="16" r="4.5"/><polygon class="cls-9" points="101.7 16 99.15 14.53 99.15 17.48 101.7 16"/></svg>