<svg id="レイヤー_1" data-name="レイヤー 1" xmlns="http://www.w3.org/2000/svg" viewBox="0 0 193.33 36.5"><defs><style>.cls-1{font-size:19px;}.cls-1,.cls-2,.cls-3{fill:#4a83c5;}.cls-1,.cls-2{font-family:GenEiNuGothic-EB, GenEi Nu Gothic EB;}.cls-2{font-size:10px;}.cls-4{fill:#fff;}.cls-5{fill:none;stroke:#4a83c5;stroke-miterlimit:10;stroke-width:0.5px;}</style></defs><title>電話番号</title><text class="cls-1" transform="translate(17.21 27.67)">080-9452-4152</text><text class="cls-2" transform="translate(17.7 9.03)">お電話のお問い合わせはコチラ</text><rect class="cls-3" width="14.5" height="29" rx="1.68"/><rect class="cls-4" x="5.07" y="1.09" width="4.35" height="0.72"/><rect class="cls-4" x="1.45" y="2.9" width="11.6" height="23.2"/><circle class="cls-4" cx="7.25" cy="27.55" r="0.72"/><circle class="cls-5" cx="7.3" cy="14" r="4.5"/><ellipse class="cls-3" cx="32.52" cy="50.39" rx="0.6" ry="2.79" transform="translate(-43.31 -18.98) rotate(-23.36)"/><path class="cls-3" d="M32.3,49.35l-.65-.25a.5.5,0,0,1-.31-.39l-.1-.69a.49.49,0,0,1,.18-.46l.54-.44a.5.5,0,0,1,.5-.07l.65.25a.5.5,0,0,1,.31.39l.1.69a.49.49,0,0,1-.18.46l-.54.44A.5.5,0,0,1,32.3,49.35Z" transform="translate(-26 -36)"/><path class="cls-3" d="M33.48,53l-.42-.43a.5.5,0,0,1-.12-.48l.16-.58a.53.53,0,0,1,.36-.35L34,51a.51.51,0,0,1,.48.14l.42.43a.49.49,0,0,1,.12.48l-.16.58a.53.53,0,0,1-.36.35l-.58.14A.48.48,0,0,1,33.48,53Z" transform="translate(-26 -36)"/></svg>